C:\GBW_MyPrograms\KinderuniversiteitApp\Resultaten\smurf_test_midnight\Jullie_lengte\Jullie_lengte_v1.mot
version=1
nRows=8
nColumns=29
inDegrees=yes
endheader
                time	         pelvis_tilt	           pelvis_tx	           pelvis_ty	       hip_flexion_l	       hip_flexion_r	        knee_angle_l	        knee_angle_r	       ankle_angle_l	       ankle_angle_r	    lumbar_extension	hamstrings_r/activation	bifemsh_r/activation	glut_max_r/activation	iliopsoas_r/activation	rect_fem_r/activation	  vasti_r/activation	gastroc_r/activation	 soleus_r/activation	tib_ant_r/activation	hamstrings_l/activation	bifemsh_l/activation	glut_max_l/activation	iliopsoas_l/activation	rect_fem_l/activation	  vasti_l/activation	gastroc_l/activation	 soleus_l/activation	tib_ant_l/activation	
          1.48325535	         -6.18445297	          1.25049153	          0.68052469	         28.60883503	        -12.36177402	        -18.31408322	         -8.11292535	          7.70158539	         -2.08334586	         -1.39170065	          0.05807800	          0.13226529	          0.07645362	          0.40724419	          0.06436929	          0.05380026	          0.20635848	          0.23682623	          0.05218897	          0.12049150	          0.06663858	          0.09218458	          0.07143302	          0.08786783	          0.06756773	          0.05723174	          0.05723121	          0.23375796	
          1.49314371	         -6.17079682	          1.26112970	          0.67937319	         27.92327892	        -12.24076407	        -17.91660052	         -9.97821403	          7.62841043	         -2.58721742	         -1.10796457	          0.05868807	          0.11717150	          0.06801888	          0.37930896	          0.06084056	          0.05362820	          0.17749261	          0.22799342	          0.05141089	          0.11897550	          0.06761107	          0.08799730	          0.06320497	          0.07781007	          0.10315470	          0.05228681	          0.05128654	          0.24348417	
          1.50303208	         -6.15117263	          1.27210047	          0.67818203	         27.09148769	        -11.99616580	        -17.97059424	        -12.10569297	          7.53976089	         -3.21763621	         -0.77707152	          0.06372868	          0.10416311	          0.10917703	          0.33941046	          0.05736772	          0.05267796	          0.15258330	          0.19817501	          0.05124911	          0.11167567	          0.13350057	          0.08017564	          0.05840530	          0.06812286	          0.09955065	          0.06522278	          0.06272779	          0.23688900	
          1.51292045	         -6.12680473	          1.28326955	          0.67701684	         26.20111592	        -11.63651366	        -18.19433836	        -14.44360820	          7.43419001	         -4.02434509	         -0.41889267	          0.05992132	          0.09278892	          0.12414900	          0.32699876	          0.05848872	          0.05366611	          0.13115717	          0.17051651	          0.05120056	          0.09702421	          0.12552825	          0.10929359	          0.05408309	          0.06115197	          0.16029144	          0.05801208	          0.05617631	          0.27619409	
          1.52280882	         -6.10013061	          1.29445127	          0.67602855	         25.36321965	        -11.15141426	        -18.53317429	        -16.96340427	          7.52204327	         -5.00462254	         -0.06009700	          0.05749772	          0.08352729	          0.11029915	          0.29908341	          0.06370787	          0.06540132	          0.11276959	          0.14659827	          0.13484826	          0.08506118	          0.11227853	          0.15231838	          0.05245372	          0.05787165	          0.20824977	          0.05443931	          0.05209709	          0.26731195	
          1.53269719	         -6.07555418	          1.30546622	          0.67529132	         24.62285804	        -10.54303324	        -19.02000340	        -19.64933149	          7.66790505	         -5.92609282	          0.27499407	          0.05960792	          0.07823438	          0.09608722	          0.27277148	          0.06037112	          0.05776101	          0.09705954	          0.12605624	          0.21267688	          0.07876132	          0.10236973	          0.18109400	          0.05218049	          0.05492701	          0.26719717	          0.05000008	          0.05549397	          0.23135566	
          1.54258556	         -6.05571896	          1.31617677	          0.67483068	         23.94281747	         -9.82772767	        -19.58792566	        -22.38499552	          8.13576980	         -6.43180412	          0.56785780	          0.07136513	          0.09071896	          0.08384391	          0.25970123	          0.05552516	          0.05130089	          0.08503514	          0.10912111	          0.21528362	          0.07159305	          0.09470427	          0.19147783	          0.05185959	          0.05489390	          0.28969587	          0.05703988	          0.08016749	          0.20116187	
          1.55247393	         -6.04270135	          1.32651086	          0.67475125	         23.27527607	         -9.02556208	        -20.11228401	        -24.92089490	          8.68238141	         -6.35296547	          0.81065377	          0.08996430	          0.11632918	          0.07309764	          0.23513027	          0.05352577	          0.05070404	          0.07955135	          0.09436053	          0.24106324	          0.07065624	          0.09450880	          0.17951664	          0.05217422	          0.05452132	          0.28873796	          0.06343901	          0.09627113	          0.17953262	
